<?xml version="1.0" encoding="UTF-8"?>
<svg version="1.1" xmlns="http://www.w3.org/2000/svg" width="290" height="174">
<path d="M0 0 C95.7 0 191.4 0 290 0 C290 57.42 290 114.84 290 174 C194.3 174 98.6 174 0 174 C0 116.58 0 59.16 0 0 Z " fill="#FEFEFE" transform="translate(0,0)"/>
<path d="M0 0 C95.7 0 191.4 0 290 0 C290 51 290 51 286 56 C283.03533048 57.51848927 281.34238213 58 278 58 C278 77.14 278 96.28 278 116 C279.32 116.33 280.64 116.66 282 117 C282 122.94 282 128.88 282 135 C280.68 135.33 279.36 135.66 278 136 C278 137.98 278 139.96 278 142 C278.99 142.33 279.98 142.66 281 143 C281.75 145.25 281.75 145.25 282 148 C279.87048763 150.8324582 278.64297851 151.88118875 275.125 152.53125 C274.09375 152.5209375 273.0625 152.510625 272 152.5 C270.453125 152.51546875 270.453125 152.51546875 268.875 152.53125 C265.35803089 151.88137527 264.14226955 150.81850403 262 148 C262.0625 145.375 262.0625 145.375 263 143 C264.485 142.01 264.485 142.01 266 141 C266.72965366 138.43717258 266.72965366 138.43717258 267 136 C265.35 135.67 263.7 135.34 262 135 C261.97309896 132.20826945 261.95320947 129.41679652 261.9375 126.625 C261.92912109 125.8309375 261.92074219 125.036875 261.91210938 124.21875 C261.88671875 118.2265625 261.88671875 118.2265625 263 116 C264.32 116 265.64 116 267 116 C267 98.18 267 80.36 267 62 C252.26199186 66.71026393 237.54729083 71.43210192 222.92596436 76.49053955 C217.69829728 78.29732201 212.4564082 80.06129065 207.21131516 81.81676102 C203.41363849 83.0902595 199.62517536 84.38351707 195.85009766 85.72265625 C178.46025542 91.87251932 162.41100314 96.01053089 143.8515625 95.9296875 C143.07053539 95.92859104 142.28950829 95.92749458 141.48481369 95.9263649 C133.6976048 95.86002896 126.64141534 95.47540925 119.47512817 92.12402344 C114.30984892 89.77832878 108.7691864 88.34489176 103.3515625 86.69140625 C102.02735592 86.28419742 100.70324636 85.87667297 99.37922668 85.46885681 C95.85612298 84.38501106 92.33133287 83.30675098 88.80616379 82.22964478 C85.88406395 81.33587254 82.96314946 80.4382589 80.04217434 79.54081917 C66.11883133 75.264471 52.18646015 71.02359139 38.20703125 66.93359375 C36.66888763 66.48313438 36.66888763 66.48313438 35.09967041 66.02357483 C30.42050107 64.65580113 25.73852583 63.29902359 21.05126953 61.95922852 C19.40785124 61.48332672 17.76445768 61.0073395 16.12109375 60.53125 C15.40629349 60.33103745 14.69149323 60.13082489 13.95503235 59.92454529 C8.81589637 58.42643014 4.95803981 56.4790199 0 54 C0 36.18 0 18.36 0 0 Z " fill="#7288AD" transform="translate(0,0)"/>
<path d="M0 0 C8.00954083 0.7531309 15.7124976 3.74326664 23.28925323 6.28577042 C27.06897175 7.54698925 30.86165352 8.76833369 34.65234375 9.99609375 C39.4270374 11.54373673 44.19710996 13.10184602 48.95166016 14.71044922 C73.95221188 23.14656337 98.84121478 29.4807518 124.90655518 20.69012451 C127.36702774 19.87900572 129.84646677 19.15685334 132.33544922 18.43798828 C138.38239312 16.68842283 144.41014217 14.8781992 150.4375 13.0625 C152.48492306 12.44822437 154.53244868 11.83429044 156.58007812 11.22070312 C158.08448959 10.76961685 158.08448959 10.76961685 159.61929321 10.30941772 C161.6040444 9.71483782 163.58904621 9.12109384 165.5743103 8.52822876 C170.09580676 7.17699835 174.61236741 5.8140099 179.11767578 4.40966797 C179.90062515 4.16937363 180.68357452 3.92907928 181.49024963 3.6815033 C182.93055945 3.23928901 184.36855996 2.78944719 185.80357361 2.33033752 C189.32051994 1.26073241 191.50224854 0.93458526 195 2 C195.15272026 9.52536884 195.25745481 17.0503349 195.32958984 24.5769043 C195.35967554 27.1346734 195.40055486 29.69234009 195.45263672 32.24975586 C195.52580791 35.93629287 195.55954078 39.6214605 195.5859375 43.30859375 C195.61690521 44.44332626 195.64787292 45.57805878 195.67977905 46.74717712 C195.68296751 54.34877587 194.23078672 59.35257996 189 65 C171.35704239 79.12820886 143.51643442 79.86543412 122 81.75 C121.26605011 81.81520844 120.53210022 81.88041687 119.77590942 81.94760132 C103.93557328 83.32711402 88.39242587 83.11523043 72.5625 81.75 C71.7803009 81.68342194 70.99810181 81.61684387 70.19219971 81.54824829 C17.13206234 76.96907466 17.13206234 76.96907466 3 64 C-0.6811193 59.2835659 -1.12437809 54.43064936 -1.12939453 48.58300781 C-1.13254669 47.52551331 -1.13569885 46.4680188 -1.13894653 45.378479 C-1.1369223 44.24811218 -1.13489807 43.11774536 -1.1328125 41.953125 C-1.13376923 40.78618103 -1.13472595 39.61923706 -1.13571167 38.41693115 C-1.1363912 35.95585069 -1.13455277 33.49476841 -1.13037109 31.03369141 C-1.1250004 27.25028509 -1.13033367 23.46699646 -1.13671875 19.68359375 C-1.13605831 17.29427057 -1.13477785 14.90494746 -1.1328125 12.515625 C-1.13483673 11.37716125 -1.13686096 10.23869751 -1.13894653 9.06573486 C-1.13579437 8.020849 -1.13264221 6.97596313 -1.12939453 5.89941406 C-1.12859894 4.97517639 -1.12780334 4.05093872 -1.12698364 3.09869385 C-1 1 -1 1 0 0 Z " fill="#7288AD" transform="translate(51,91)"/>
<path d="M0 0 C43.56 0 87.12 0 132 0 C132 14.85 132 29.7 132 45 C131.01 43.68 130.02 42.36 129 41 C127.06339319 39.95566335 127.06339319 39.95566335 124.80493164 39.34057617 C123.91793076 39.06353348 123.03092987 38.78649078 122.11705017 38.50105286 C121.12065018 38.2055101 120.12425018 37.90996735 119.09765625 37.60546875 C118.0203273 37.27338913 116.94299835 36.94130951 115.83302307 36.59916687 C113.33201851 35.83012275 110.82986307 35.06673895 108.32501221 34.31048584 C103.5296252 32.8609812 98.7431514 31.3829738 93.95654297 29.90478516 C83.44988082 26.66321575 72.93676037 23.44292816 62.42254639 20.22595215 C54.52666417 17.80973825 46.63165432 15.39067513 38.73658943 12.97179222 C36.02071278 12.13996436 33.30462121 11.30884172 30.58848572 10.4778595 C20.38126625 7.35345725 10.1845611 4.19750883 0 1 C0 0.67 0 0.34 0 0 Z " fill="#FEFEFE" transform="translate(158,0)"/>
<path d="M0 0 C42.24 0 84.48 0 128 0 C125.76245457 2.23754543 124.42322552 2.67364262 121.44165039 3.62548828 C120.00428024 4.089226 120.00428024 4.089226 118.53787231 4.56233215 C116.95871536 5.06128242 116.95871536 5.06128242 115.34765625 5.5703125 C114.24509491 5.923853 113.14253357 6.27739349 112.00656128 6.64164734 C108.36045737 7.80886042 104.71154779 8.96702635 101.0625 10.125 C98.53641018 10.93147915 96.01045122 11.73836828 93.48461914 12.5456543 C74.21781369 18.69726128 54.92445452 24.765844 35.61547852 30.78369141 C30.90457242 32.25202824 26.1971042 33.73090156 21.49188232 35.21734619 C19.12666013 35.96021841 16.75738531 36.68865891 14.38720703 37.41552734 C13.03004341 37.84269433 11.67309244 38.27053785 10.31640625 38.69921875 C9.1776001 39.05201904 8.03879395 39.40481934 6.86547852 39.76831055 C3.50139436 41.00474165 3.50139436 41.00474165 0 45 C0 30.15 0 15.3 0 0 Z " fill="#FEFEFE" transform="translate(0,0)"/>
</svg>
